# AST/ASF file generated using VICON BodyLanguage
# -----------------------------------------------
:version 1.10
:name VICON
:units
  mass 1.0
  length 0.45
  angle deg
:documentation
   .ast/.asf automatically generated from VICON data using
   VICON BodyBuilder and BodyLanguage model FoxedUp or BRILLIANT.MOD
:root
   order TX TY TZ RX RY RZ
   axis XYZ
   position 0 0 0  
   orientation 0 0 0 
:bonedata
  begin
     id 1 
     name lhipjoint
     direction 0.645893 -0.654526 0.392961 
     length 2.38111 
     axis 0 0 0  XYZ
  end
  begin
     id 2 
     name lfemur
     direction 0.34202 -0.939693 0  
     length 6.6822  
     axis 0 0 20  XYZ
    dof rx ry rz
    limits (-160.0 20.0)
           (-70.0 70.0)
           (-60.0 70.0)
  end
  begin
     id 3 
     name ltibia
     direction 0.34202 -0.939693 0   
     length 6.93904   
     axis 0 0 20   XYZ
    dof rx
    limits (-10.0 170.0)
  end
  begin
     id 4 
     name lfoot
     direction 0.0694967 -0.190941 0.979138   
     length 2.13616   
     axis -90 7.62852e-016 20   XYZ
    dof rx rz
    limits (-45.0 90.0)
           (-70.0 20.0)
  end
  begin
     id 5 
     name ltoes
     direction 1.535e-011 -4.2202e-011 1   
     length 1.07536   
     axis -90 7.62852e-016 20   XYZ
    dof rx
    limits (-90.0 20.0)
  end
  begin
     id 6 
     name rhipjoint
     direction -0.700219 -0.612087 0.367481   
     length 2.54621  
     axis 0 0 0  XYZ 
  end
  begin
     id 7 
     name rfemur
     direction -0.34202 -0.939693 0   
     length 6.55353   
     axis 0 0 -20   XYZ
    dof rx ry rz
    limits (-160.0 20.0)
           (-70.0 70.0)
           (-70.0 60.0)
  end
  begin
     id 8 
     name rtibia
     direction -0.34202 -0.939693 0   
     length 6.8736   
     axis 0 0 -20   XYZ
    dof rx
    limits (-10.0 170.0)
 end
 begin
     id 9 
     name rfoot
     direction -0.0679995 -0.186827 0.980037   
     length 2.1218  
     axis -90 -7.62852e-016 -20   XYZ
    dof rx rz
    limits (-45.0 90.0)
           (-20.0 70.0)
  end
  begin
     id 10 
     name rtoes
     direction -1.53589e-011 -4.21772e-011 1   
     length 1.06864   
     axis -90 -7.62852e-016 -20   XYZ
    dof rx
    limits (-90.0 20.0)
  end
  begin
     id 11 
     name lowerback
     direction -0.0416607 0.996347 -0.0745409   
     length 2.12205   
     axis 0 0 0   XYZ
    dof rx ry rz
    limits (-20.0 45.0)
           (-30.0 30.0)
           (-30.0 30.0)
  end
  begin
     id 12 
     name upperback
     direction -0.000153993 0.999276 -0.0380568   
     length 2.12759   
     axis 0 0 0   XYZ
    dof rx ry rz
    limits (-20.0 45.0)
           (-30.0 30.0)
           (-30.0 30.0)
  end
  begin
     id 13 
     name thorax
     direction 0.0187671 0.999821 -0.00241421   
     length 2.13704   
     axis 0 0 0   XYZ
    dof rx ry rz
    limits (-20.0 45.0)
           (-30.0 30.0)
           (-30.0 30.0)
  end
  begin
     id 14 
     name lowerneck
     direction 0.0268157 0.964865 0.261374   
     length 1.65253   
     axis 0 0 0   XYZ
    dof rx ry rz
    limits (-20.0 45.0)
           (-30.0 30.0)
           (-30.0 30.0)
  end
  begin
     id 15 
     name upperneck
     direction 0.00263774 0.939908 -0.341418   
     length 1.72375   
     axis 0 0 0   XYZ
    dof rx ry rz
    limits (-20.0 45.0)
           (-30.0 30.0)
           (-30.0 30.0)
  end
  begin
     id 16
     name head
     direction -0.00526001 0.989001 -0.147818  
     length 1.74878  
     axis 0 0 0   XYZ
    dof rx ry rz
    limits (-20.0 45.0)
           (-30.0 30.0)
           (-30.0 30.0)
  end
  begin
     id 17 
     name lclavicle
     direction 0.881214 0.461162 -0.103884  
     length 3.25108  
     axis 0 0 0   XYZ
    dof ry rz
    limits (-20.0 10.0)
           (0.0 20.0)
  end
  begin
     id 18 
     name lhumerus
     direction 1 -4.4899e-011 3.38092e-027   
     length 4.87408   
     axis 180 -30 -90   XYZ
    dof rx ry rz
    limits (-60.0 90.0)
           (-90.0 90.0)
           (-90.0 90.0)
  end
  begin
     id 19
     name lradius
     direction 1 -4.48931e-011 9.96288e-027   
     length 2.76729   
     axis 180 -30 -90   XYZ
    dof rx
    limits (-10.0 170.0)
  end
  begin
     id 20
     name lwrist
     direction 1 -4.4896e-011 1.50617e-026   
     length 1.38364   
     axis -9.31234e-015 90 90   XYZ
    dof ry
    limits (-180.0 0.0)
 end
  begin
     id 21 
     name lhand
     direction 1 -4.49038e-011 3.01286e-026   
     length 0.98922   
     axis -1.92217e-014 90 90   XYZ
    dof rx rz
    limits (-90.0 90.0)
           (-45.0 45.0)
  end
  begin
     id 22 
     name lfingers
     direction 1 -4.49051e-011 6.02588e-026   
     length 0.797535   
     axis -3.84436e-014 90 90   XYZ
    dof rx
    limits (0.0 90.0)
  end
  begin
     id 23
     name lthumb
     direction 0.707107 -6.34901e-011 0.707107   
     length 1.14511   
     axis -90 45 2.19363e-014   XYZ
    dof rx rz
    limits (-45.0 45.0)
           (-45.0 45.0)
  end
  begin
     id 24 
     name rclavicle
     direction -0.893894 0.441652 -0.0767889   
     length 3.29361  
     axis 0 0 0   XYZ 
    dof ry rz
    limits (-10.0 20.0)
           (-20.0 0.0)
  end
  begin
     id 25 
     name rhumerus
     direction -1 -4.48945e-011 8.0491e-028  
     length 4.71404   
     axis 180 30 90   XYZ
    dof rx ry rz
    limits (-90.0 60.0)
           (-90.0 90.0)
           (-90.0 90.0)
  end
  begin
     id 26 
     name rradius
     direction -1 -4.48986e-011 9.27795e-027   
     length 2.83468   
     axis 180 30 90   XYZ
    dof rx
    limits (-10.0 170.0)
  end
  begin
     id 27 
     name rwrist
     direction -1 -4.49029e-011 1.5064e-026   
     length 1.41734   
     axis -9.31234e-015 -90 -90   XYZ
    dof ry
    limits (-180.0 0.0)
  end
  begin
     id 28
     name rhand
     direction -1 -4.48857e-011 3.01165e-026   
     length 0.868195   
     axis -1.92217e-014 -90 -90   XYZ
    dof rx rz
    limits (-90.0 90.0)
           (-45.0 45.0)
  end
  begin
     id 29
     name rfingers
     direction -1 -4.49048e-011 6.02585e-026   
     length 0.699961   
     axis -3.84436e-014 -90 -90   XYZ
    dof rx
    limits (0.0 90.0)
  end
  begin
     id 30
     name rthumb
     direction -0.707107 -6.34854e-011 0.707107   
     length 1.00501   
     axis -90 -45 -2.19363e-014   XYZ
    dof rx rz
    limits (-45.0 45.0)
           (-45.0 45.0)
  end
:hierarchy
  begin
    root lhipjoint rhipjoint lowerback
    lhipjoint lfemur
    lfemur ltibia
    ltibia lfoot
    lfoot ltoes
    rhipjoint rfemur
    rfemur rtibia
    rtibia rfoot
    rfoot rtoes
    lowerback upperback
    upperback thorax
    thorax lowerneck lclavicle rclavicle
    lowerneck upperneck
    upperneck head
    lclavicle lhumerus
    lhumerus lradius
    lradius lwrist
    lwrist lhand lthumb
    lhand lfingers
    rclavicle rhumerus
    rhumerus rradius
    rradius rwrist
    rwrist rhand rthumb
    rhand rfingers
  end

#!OML:ASF H:\ManfredObstacles\Project 1\Capture day 2\Session 1\male.ASF
:FULLY-SPECIFIED
:DEGREES
129
root -3.31762 15.0373 -4.43408 -183.346 42.5084 164.086
lowerback 1.35068 0.302166 -10.5538
upperback 1.3505 0.566279 -3.63086
thorax 0.604108 0.315473 2.13276
lowerneck -33.4064 -3.92685 -1.44992
upperneck 40.7405 -6.05963 4.91616
head 24.0235 -1.02852 1.51429
rclavicle 2.14222e-014 -2.65874e-014
rhumerus -53.9145 6.59472 -87.9378
rradius 66.6791
rwrist 9.40204
rhand -10.428 -8.30655
rfingers 7.12502
rthumb 15.5715 -37.6997
lclavicle 2.14222e-014 -2.65874e-014
lhumerus -43.9036 -24.7581 85.3192
lradius 92.4612
lwrist -18.0539
lhand -15.0525 10.5041
lfingers 7.12502
lthumb 11.1141 40.1898
rfemur -26.9477 -4.48866 16.278
rtibia 90.0219
rfoot 0.792424 -18.1234
rtoes -13.1321
lfemur -15.7973 -4.49539 -29.2454
ltibia 43.5072
lfoot -1.23559 25.8619
ltoes -21.0601
130
root -3.16645 15.0394 -4.63355 -183.144 42.5966 164.202
lowerback 1.57841 -0.0525524 -10.431
upperback 1.37395 0.0596703 -3.55307
thorax 0.557203 0.0630058 2.15043
lowerneck -33.597 -3.74234 -1.38022
upperneck 40.6331 -5.84244 4.89985
head 23.9722 -0.96103 1.54388
rclavicle 1.98785e-014 -2.06239e-014
rhumerus -55.0301 6.38467 -87.8695
rradius 66.5139
rwrist 8.93335
rhand -10.181 -8.20015
rfingers 7.12502
rthumb 15.8094 -37.5746
lclavicle 1.98785e-014 -2.06239e-014
lhumerus -42.67 -24.7442 85.3969
lradius 92.7352
lwrist -18.1776
lhand -15.1453 10.3146
lfingers 7.12502
lthumb 11.0246 40.005
rfemur -29.5713 -4.75183 16.4855
rtibia 90.7654
rfoot -0.424282 -18.4454
rtoes -13.2591
lfemur -14.7053 -4.52243 -29.3304
ltibia 43.1392
lfoot -0.745932 25.8367
ltoes -21.5308
131
root -3.0077 15.0569 -4.8352 -183.004 42.6798 164.254
lowerback 1.78583 -0.401846 -10.3746
upperback 1.40018 -0.435874 -3.46916
thorax 0.523867 -0.184866 2.21208
lowerneck -33.7611 -3.55 -1.30997
upperneck 40.5323 -5.59082 4.84441
head 23.9108 -0.886906 1.56195
rclavicle 5.77283e-014 5.81445e-015
rhumerus -56.2423 6.27217 -87.796
rradius 66.56
rwrist 8.48083
rhand -9.92115 -8.04101
rfingers 7.12502
rthumb 16.0596 -37.3955
lclavicle 5.77283e-014 5.81445e-015
lhumerus -41.5008 -24.7847 85.5357
lradius 93.1148
lwrist -18.2668
lhand -15.2353 10.1639
lfingers 7.12502
lthumb 10.9378 39.859
rfemur -32.061 -4.95381 16.6392
rtibia 91.1116
rfoot -1.53313 -18.7113
rtoes -13.2474
lfemur -13.4298 -4.58693 -29.4681
ltibia 42.4575
lfoot -0.0879907 25.613
ltoes -21.8476
132
root -2.84062 15.0894 -5.03825 -182.908 42.75 164.238
lowerback 1.94477 -0.748525 -10.3932
upperback 1.43173 -0.920357 -3.38037
thorax 0.524598 -0.429039 2.32033
lowerneck -33.9447 -3.35473 -1.22754
upperneck 40.4644 -5.31912 4.7464
head 23.8811 -0.807817 1.56207
rclavicle 6.44187e-015 2.85256e-014
rhumerus -57.5034 6.21947 -87.7104
rradius 66.7641
rwrist 8.08382
rhand -9.66835 -7.85446
rfingers 7.12502
rthumb 16.303 -37.1891
lclavicle 6.44187e-015 2.85256e-014
lhumerus -40.3832 -24.8928 85.7166
lradius 93.5488
lwrist -18.3929
lhand -15.329 10.0321
lfingers 7.12502
lthumb 10.8474 39.7319
rfemur -34.4186 -5.09287 16.7374
rtibia 91.0636
rfoot -2.5024 -18.9022
rtoes -13.1872
lfemur -12.0036 -4.66901 -29.6479
ltibia 41.4717
lfoot 0.66464 25.1383
ltoes -21.979
133
root -2.66521 15.1363 -5.24237 -182.796 42.8021 164.202
lowerback 2.0385 -1.10001 -10.4535
upperback 1.4527 -1.4044 -3.27454
thorax 0.554524 -0.674711 2.4684
lowerneck -34.0993 -3.15008 -1.12977
upperneck 40.4181 -5.01491 4.60237
head 23.8541 -0.720292 1.54466
rclavicle 4.51303e-014 3.84648e-014
rhumerus -58.7938 6.23284 -87.6291
rradius 67.1056
rwrist 7.69485
rhand -9.45785 -7.7568
rfingers 7.12502
rthumb 16.5057 -37.0747
lclavicle 4.51303e-014 3.84648e-014
lhumerus -39.343 -25.0857 85.9459
lradius 94.0113
lwrist -18.501
lhand -15.4444 9.95604
lfingers 7.12502
lthumb 10.7361 39.6617
rfemur -36.6504 -5.15504 16.8226
rtibia 90.6187
rfoot -3.2943 -19.0044
rtoes -13.2129
lfemur -10.484 -4.77043 -29.8217
ltibia 40.2188
lfoot 1.47317 24.3995
ltoes -21.9342
134
root -2.48132 15.1974 -5.44728 -182.621 42.8601 164.175
lowerback 2.04423 -1.45413 -10.5311
upperback 1.44896 -1.88371 -3.15153
thorax 0.611611 -0.919449 2.64129
lowerneck -34.2223 -2.9254 -0.990499
upperneck 40.4035 -4.67656 4.41257
head 23.8376 -0.618396 1.5062
rclavicle 8.80119e-014 2.5345e-014
rhumerus -60.0966 6.27819 -87.5403
rradius 67.5312
rwrist 7.34772
rhand -9.27915 -7.66938
rfingers 7.12502
rthumb 16.6777 -36.9729
lclavicle 8.80119e-014 2.5345e-014
lhumerus -38.4033 -25.3649 86.2013
lradius 94.4843
lwrist -18.6046
lhand -15.5601 9.89601
lfingers 7.12502
lthumb 10.6245 39.6074
rfemur -38.7748 -5.11545 16.9135
rtibia 89.7791
rfoot -3.87723 -19.0071
rtoes -13.3764
lfemur -8.92537 -4.85344 -29.9592
ltibia 38.7328
lfoot 2.3821 23.378
ltoes -21.7355
135
root -2.2895 15.2714 -5.65289 -182.356 42.9133 164.185
lowerback 1.97287 -1.81556 -10.5956
upperback 1.40805 -2.36751 -3.00648
thorax 0.677355 -1.16681 2.82649
lowerneck -34.311 -2.68129 -0.818024
upperneck 40.4128 -4.2995 4.17493
head 23.8251 -0.502959 1.44774
rclavicle 6.40335e-014 8.69683e-015
rhumerus -61.4078 6.36521 -87.4567
rradius 68.0353
rwrist 6.98157
rhand -9.1663 -7.69076
rfingers 7.12502
rthumb 16.7863 -36.9851
lclavicle 6.40335e-014 8.69683e-015
lhumerus -37.6072 -25.7385 86.499
lradius 94.969
lwrist -18.6571
lhand -15.679 9.8434
lfingers 7.12502
lthumb 10.5098 39.5607
rfemur -40.7792 -4.98896 17.024
rtibia 88.5465
rfoot -4.23369 -18.9133
rtoes -13.7036
lfemur -7.36683 -4.89707 -30.0288
ltibia 37.0532
lfoot 3.42035 22.044
ltoes -21.4276
136
root -2.08956 15.3577 -5.86074 -182.045 42.9759 164.198
lowerback 1.84104 -2.18577 -10.672
upperback 1.32667 -2.85981 -2.8435
thorax 0.740888 -1.41795 3.03277
lowerneck -34.3535 -2.40547 -0.609586
upperneck 40.4485 -3.86382 3.88884
head 23.8153 -0.366622 1.37441
rclavicle -2.55997e-014 7.27117e-015
rhumerus -62.71 6.49625 -87.3679
rradius 68.5617
rwrist 6.59894
rhand -9.10652 -7.76071
rfingers 7.12502
rthumb 16.8439 -37.0502
lclavicle -2.55997e-014 7.27117e-015
lhumerus -36.9863 -26.1667 86.8257
lradius 95.459
lwrist -18.736
lhand -15.7959 9.78026
lfingers 7.12502
lthumb 10.3971 39.5032
rfemur -42.6204 -4.78344 17.1017
rtibia 86.931
rfoot -4.42004 -18.7043
rtoes -14.1066
lfemur -5.7994 -4.91047 -30.0668
ltibia 35.199
lfoot 4.62717 20.4344
ltoes -21.0546
137
root -1.88244 15.4547 -6.07006 -181.695 43.0291 164.212
lowerback 1.67539 -2.5702 -10.757
upperback 1.20498 -3.37072 -2.66676
thorax 0.789158 -1.6769 3.25425
lowerneck -34.3361 -2.09902 -0.360189
upperneck 40.5043 -3.37886 3.56513
head 23.8009 -0.210108 1.28812
rclavicle -2.89403e-014 -1.82633e-015
rhumerus -63.9991 6.67258 -87.2731
rradius 69.1114
rwrist 6.20731
rhand -9.09277 -7.87368
rfingers 7.12502
rthumb 16.8571 -37.162
lclavicle -2.89403e-014 -1.82633e-015
lhumerus -36.5557 -26.657 87.1845
lradius 95.969
lwrist -18.7778
lhand -15.9094 9.71354
lfingers 7.12502
lthumb 10.2875 39.4419
rfemur -44.2791 -4.52705 17.1378
rtibia 84.947
rfoot -4.45814 -18.4068
rtoes -14.5655
lfemur -4.24489 -4.89375 -30.0664
ltibia 33.1953
lfoot 5.99792 18.5586
ltoes -20.6828
138
root -1.66836 15.5605 -6.28109 -181.342 43.048 164.203
lowerback 1.49615 -2.97636 -10.8676
upperback 1.04818 -3.91187 -2.47649
thorax 0.819862 -1.94916 3.50009
lowerneck -34.2949 -1.76789 -0.104691
upperneck 40.5752 -2.83931 3.21434
head 23.7946 -0.0367012 1.20249
rclavicle -1.72924e-013 7.18855e-014
rhumerus -65.2191 6.8383 -87.125
rradius 69.5891
rwrist 5.84786
rhand -9.10141 -7.91558
rfingers 7.12502
rthumb 16.8488 -37.2046
lclavicle -1.72924e-013 7.18855e-014
lhumerus -36.3079 -27.1721 87.5664
lradius 96.4898
lwrist -18.8567
lhand -15.9995 9.60706
lfingers 7.12502
lthumb 10.2007 39.3398
rfemur -45.7221 -4.26505 17.1044
rtibia 82.6139
rfoot -4.38674 -18.0556
rtoes -14.9583
lfemur -2.69454 -4.85193 -30.0489
ltibia 31.0543
lfoot 7.56506 16.3853
ltoes -20.3155
139
root -1.44812 15.6724 -6.49332 -181.01 43.0386 164.154
lowerback 1.32297 -3.39779 -11.0119
upperback 0.866153 -4.47526 -2.28366
thorax 0.832353 -2.23039 3.7638
lowerneck -34.206 -1.42251 0.160308
upperneck 40.6556 -2.27159 2.85538
head 23.7864 0.148266 1.11933
rclavicle -4.63417e-015 -3.27249e-014
rhumerus -66.3693 6.98247 -86.9269
rradius 70.0135
rwrist 5.53245
rhand -9.11291 -7.88419
rfingers 7.12502
rthumb 16.8377 -37.1742
lclavicle -4.63417e-015 -3.27249e-014
lhumerus -36.2102 -27.7266 87.9423
lradius 97.0171
lwrist -18.9156
lhand -16.0451 9.45423
lfingers 7.12502
lthumb 10.1566 39.1891
rfemur -46.9366 -3.99597 16.9926
rtibia 79.9582
rfoot -4.19629 -17.7091
rtoes -15.2529
lfemur -1.1465 -4.78029 -30.027
ltibia 28.7961
lfoot 9.34595 13.9659
ltoes -19.9663
